FILE "psxeg.bin" BINARY
  TRACK 01 MODE2/2352
    INDEX 01 00:00:00
  TRACK 02 AUDIO
    INDEX 00 00:16:49
    INDEX 01 00:18:49
  TRACK 03 AUDIO
    INDEX 00 04:39:30
    INDEX 01 04:41:30
